<?xml version="1.0" encoding="utf-8"?>
<!-- Generator: Adobe Illustrator 17.0.0, SVG Export Plug-In . SVG Version: 6.00 Build 0)  -->
<!DOCTYPE svg PUBLIC "-//W3C//DTD SVG 1.1//EN" "http://www.w3.org/Graphics/SVG/1.1/DTD/svg11.dtd">
<svg version="1.1" id="圖層_1" xmlns="http://www.w3.org/2000/svg" xmlns:xlink="http://www.w3.org/1999/xlink" x="0px" y="0px"
	 width="194.875px" height="205.062px" viewBox="0 0 194.875 205.062" style="enable-background:new 0 0 194.875 205.062;"
	 xml:space="preserve">
<style type="text/css">
	.st0{fill:#7E6B6B;}
</style>
<path class="st0" d="M119.293,196.718c-0.209,0.069-0.418,0.139-0.627,0.208c-1.982-0.17-2.707-2.72-3.704-3.96
	c-0.844-1.05-1.816-1.101-2.821-0.193c-2.597,2.345-6.599,6.344-10.253,7.058c-2.51,0.49-3.989-0.081-6.714,0.785
	c-2.001,0.636-3.078-1.304-5.204,0.003c-0.982,0.604-7.791,6.741-8.17,3.508c-0.654-5.575-1.749-10.991-2.272-16.488
	c-0.342-3.6-1.144-4.933-0.604-8.762c0.579-4.108,1.717-8.178,2.788-12.208c0.226-0.849-0.02-1.431-0.75-1.643
	c-6.153-1.787-12.589,1.294-18.56-0.782c-3.169-1.101-6.322-0.021-9.574-1.189c-3.635-1.306-7.918-2.103-11.683-3.088
	c-7.913-2.07-14.096-8.092-21.097-12.183c-2.687-1.57-5.404-3.649-8.556-4.309c-3.499-0.733-8.808,0.096-11.391-2.748
	c-0.035-0.105-0.069-0.209-0.104-0.314c3.945-4.903,11.719-5.745,16.907-9.014c5.991-3.774,12.776-5.627,19.372-8.008
	c5.156-1.861,9.484-5.102,14.563-7.081c2.443-0.952,3.847-2.715,6.024-3.756c3.401-1.627,7.372-1.916,10.902-3.674
	c1.355-0.675,1.691-1.653,1.083-2.806c-2.444-4.639-7.211-7.504-10.326-11.734c-1.291-1.753-2.298-3.742-3.697-5.411
	c-1.456-1.736-2.293-4.465-3.84-5.947c-3.346-3.206-3.897-6.605-4.345-10.741c-0.265-2.447-1.629-4.639-1.609-7.19
	c0.019-2.287-2.655-5.499-2.374-7.234c1.315-8.106,0.09-16.534,0.128-24.685c0.046-10.111-5.865-21.608-3.419-31.582
	c0.371-1.513,1.985-1.989,3.293-1.124c3.51,2.32,6.398,6.727,9.516,9.605c3.663,3.382,7.444,6.484,11.6,9.251
	c1.247,0.83,2.749,0.845,4.008,1.586c1.681,0.989,2.691,3.268,4.144,4.581c3.207,2.897,7.506,4.846,11.134,7.174
	c7.342,4.712,15.014,9.644,20.697,16.324c5.718,6.72,9.887,13.922,16.967,19.575c0.877,0.7,1.374,0.379,1.683-0.693
	c1.191-4.136,3.881-9.382,6.811-12.182c1.893-1.81,6.243-10.131,8.636-9.87c3.422,0.373,9.955-4.461,13.184-5.869
	c5.674-2.475,11.692-5.345,17.768-6.643c0.929-0.198,1.415,0.217,1.28,1.157c-0.987,6.855-5.983,13.906-8.307,20.481
	c-1.234,3.49-1.538,12.466-0.009,15.846c4.803,10.615,0.464,18.62-0.299,29.742c5.128-0.138,10.299-3.574,15.301-4.83
	c3.411-0.856,15.477-3.304,17.863-0.194c1.522,4.585-4.838,13.094-7.054,16.83c-2.137,3.602-3.348,6.286-6.33,9.627
	c-1.442,1.615-3.115,2.5-2.124,4.771c1.787,4.095-11.564,10.286-14.571,10.311c-2.995,0.025-5.778,0.956-8.698,1.489
	c-0.864,0.364-1.698,0.786-2.502,1.267c-1.666,0.368-3.251-0.626-4.972-0.18c1.724,3.459,6.885,5.199,10.086,6.952
	c4.837,2.649,9.756,5.132,14.709,7.556c5.039,2.466,10.053,5.045,15.223,7.229c2.502,1.057,2.587,9.418-0.554,8.054
	c-17.784-7.718-33.739-18.374-51.193-26.584c-1.99-0.936-0.102,8.499-0.451,10.212c-0.588,2.886-1.751,5.833-1.665,8.862
	c0.064,2.264,1.419,5.429-0.036,7.484c-3.071,4.337-1.96,10.508-3.836,15.268c-0.642,1.629-3.502,3.658-4.593,5.247
	C124.361,192.369,121.8,195.009,119.293,196.718C119.084,196.788,121.534,195.19,119.293,196.718z"/>
</svg>
