<?xml version="1.0" encoding="utf-8"?>
<!-- Generator: Adobe Illustrator 17.0.0, SVG Export Plug-In . SVG Version: 6.00 Build 0)  -->
<!DOCTYPE svg PUBLIC "-//W3C//DTD SVG 1.1//EN" "http://www.w3.org/Graphics/SVG/1.1/DTD/svg11.dtd">
<svg version="1.1" id="圖層_1" xmlns="http://www.w3.org/2000/svg" xmlns:xlink="http://www.w3.org/1999/xlink" x="0px" y="0px"
	 width="210.96px" height="205.138px" viewBox="0 0 210.96 205.138" style="enable-background:new 0 0 210.96 205.138;"
	 xml:space="preserve">
<style type="text/css">
	.st0{fill:#7E6B6B;}
</style>
<path class="st0" d="M38.363,147.362c-3.227-0.954-6.328-2.382-8.917-4.563c-3.109-2.618-0.48-1.954-1.053-4.352
	c-1.238-5.18-11.968-5.921-14.58-10.685c-1.46-2.664-0.846-3.049-3.762-5.123c-2.879-2.049-5.946-4.083-8.41-6.638
	c-6.814-7.065,9.619-4.026,12.373-3.735c2.658,0.281,17.415,4.64,16.527-1.064c-1.075-6.909-7.713-13.875-11.403-19.6
	c-3.792-5.886-6.093-11.823-7.912-18.545c2.542,1.824,12.62,9.201,15.106,3.598c1.131-2.549-1.076-6.62-1.501-9.225
	c-0.537-3.287-1.851-6.934-1.636-10.27c0.16-2.488,1.931-3.737,4.3-2.837c1.861,0.708,1.828-6.789,2.102-8.175
	c1.425-7.206,2.745-14.529,4.326-21.682c0.416-1.883,0.592-6.628,2.676-7.584c2.423-1.112,3.653,4.331,3.874,5.744
	c0.517,3.3,0.329,5.839,2.875,8.407c2.415,2.436,5.226,4.699,6.623,7.926c1.291,2.984,0.34,3.398,2.716,5.212
	c2.231,1.704,2.853,5.3,3.402,7.844c0.574,2.665,0.817,6.328,2.998,8.282c2.311,2.07,3.848-1.963,5.678-1.428
	c0.907,0.265,2.127,16.411,2.815,18.837c0.898,3.167,3.809,16.144,7.759,9.384c3.681-6.3,1.786-14.382,1.847-21.27
	c0.013-1.425-0.061-8.2,1.622-8.776c2.798-0.957,4.174-4.991,5.447-7.32c0.547-1.001,7.64-14.64,10.393-10.78
	c3.474,4.871,2.147,12.405,6.937,16.931c2.715,2.565,8.807-11.977,10.215-14.124c4.146-6.321,8.678-12.351,11.942-19.209
	c1.7,2.117,4.912,11.476,8.942,9.014c4.672-2.854,7.57-11.737,13.531-12.229c3.202-0.265,2.952,0.763,5.93-1.546
	c3.006-2.33,6.092-4.553,9.186-6.763c2.476-1.768,4.957-3.529,7.408-5.331c1.628-1.197,5.835-5.746,7.853-5.764
	c1.114,1.812-1.479,8.513-1.96,10.514c-1.081,4.5-2.364,8.96-3.721,13.383c-0.903,2.943-4.584,9.262-4.007,12.201
	c0.277,1.41,2.009,2.027,2.496,3.383c0.667,1.857-0.972,3.839-2.088,5.114c-1.989,2.274-5.3,4.95-5.078,8.358
	c0.227,3.474,5.2,2.559,7.423,2.714c8.38,0.585-4.497,13.738-6.476,16.222c-1.626,2.041-15.794,9.811-9.95,13.538
	c2.095,1.336,23.274,4.095,18.718,10.136c-1.923,2.551-6.762,3.145-9.399,5.21c-3.137,2.457-6.617,4.44-10.235,6.095
	c-2.647,1.211-8.004,2.023-10.036,3.985c-0.7,0.676,0.686,1.623-0.83,2.237c-1.692,0.685-2.046-0.203-2.204-1.167
	c-4.245,0.638-10.59,2.617-14.273,4.859c-3.433,2.09-6.697,6.484-1.078,8.063c3.048,0.857,6.034,3.449,9.14,3.413
	c5.652-0.066,10.812-4.566,16.494-3.633c4.636,0.761,4.466,5.878,8.677,7.569c5.941,2.386,12.817,1.876,19.082,1.704
	c5.93-0.163,11.245,2.209,16.914,3.856c6.436,1.87,11.962,3.936,16.759,8.764c-6.813,2.197-13.993,2.617-20.832,4.65
	c-2.928,0.87-4.906,2.14-6.977,4.313c-2.698,2.831-7.839,2.498-11.495,3.521c-7.941,2.222-14.669,4.204-23.048,3.96
	c-9.544-0.277-1.991,8.126,0.643,12.342c1.876,3.002,2.471,4.345-1.284,4.704c-3.512,0.335-7.051,0.165-10.551-0.223
	c-3.598-0.399-7.157-1.155-10.771-1.412c-4.099-0.292-6.768-3.397-10.68-4.698c-2.448-0.814-7.145-2.282-9.245,0.005
	c-1.777,1.935,3.269,8.507,4.121,10.296c1.653,3.469,3.081,7.038,4.489,10.611c0.22,0.559,2.206,11.957-0.145,10.5
	c-2.547-1.578-4.572-4.789-7.132-6.605c-3.71-2.631-8.053-5.355-12.403-6.781c-4.311-1.412-6.321-3.929-9.311-7.314
	c-3.641-4.122-4.498-4.235-6.478,1.012c-3.038-5.521-5.215-11.378-7.756-17.13c-1.457-3.299-3.003-6.697-5.167-9.604
	c-0.833-1.139-1.799-2.15-2.901-3.032c-0.957-0.754-1.385,0.49-1.989,0.016c-0.518-0.406,0.366-0.726,0.009-1.137
	c-2.218,0.35-5.97,4.144-9.594,9.608c-6.943,10.466-1.773,11.596-9.262,20.261c-2.724,3.152-22.706,28.253-24.144,17.595
	c-0.612-4.532,4.942-7.934,8.012-8.955c5.332-1.774,9.49-7.838,15.738-17.554c2.663-4.142-0.467-8.136,7.194-17.103
	c3.628-4.246,10.85-11.289,9.186-10.345C57.52,148.887,44.455,149.163,38.363,147.362z"/>
</svg>
