<?xml version="1.0" encoding="utf-8"?>
<!-- Generator: Adobe Illustrator 17.0.0, SVG Export Plug-In . SVG Version: 6.00 Build 0)  -->
<!DOCTYPE svg PUBLIC "-//W3C//DTD SVG 1.1//EN" "http://www.w3.org/Graphics/SVG/1.1/DTD/svg11.dtd">
<svg version="1.1" id="圖層_1" xmlns="http://www.w3.org/2000/svg" xmlns:xlink="http://www.w3.org/1999/xlink" x="0px" y="0px"
	 width="213.911px" height="215.744px" viewBox="0 0 213.911 215.744" style="enable-background:new 0 0 213.911 215.744;"
	 xml:space="preserve">
<style type="text/css">
	.st0{fill:#7E6B6B;}
</style>
<path class="st0" d="M149.185,175.581c-2.218-4.701-3.702-8.774-7.486-12.736c-0.175-0.275-1.794-0.817-1.975-1.064
	c-1.375,9.641-4.624,12.744-11.206,12.553l-1.48,1.665l-2.052-2.278l-4.851,11.049c-6.875-6.333-28.456,1.234-41.991,1.768
	l6.872-7.452l1.531-3.642l3.816-3.259l8.289-6.172c2.161-3.017,2.288-5.084-0.586-5.724l-27.463,6.44l-5.77-0.202l-3.281-0.074
	c-6.782-7.514-21.243-9.984-26.88-4.378c0.531-1.784,2.474-4.547,4.97-7.695l4.963,1.237c2.033-4.745,9.554-8.929,16.057-12.756
	c-13.307-5.636-23.498-6.73-34.253-9.011l-3.912-3.124c-5.573,0.929-9.404-0.269-11.505,5.522
	c-1.484-4.181-0.028-8.664,6.691-13.695c2.616-7.665,0.914-16.054-4.007-24.983l0.108-2.782c-2.117,1.958-4.471,1.316-6.859,0.291
	c-4.913,3.02-6.575,5.804-4.792,8.336c-2.442-2.389-2.444-5.858-1.696-8.404l-0.023-0.727c4.071-9.01,14.94-7.034,18.711-11.549
	c8.425,4.444,17.077,4.747,25.993,0.085c1.377-2.443,3.017-3.272,5.127-1.242c1.535,0.913,3.632,1.283,5.896,1.503
	c0.29,2.945,1.234,4.022,2.197,4.932l0.692,1.755L59.91,90.6c0.585-0.536,0.931-1.567,1.118-2.938
	c5.529,5.955,17.047,8.579,21.366,4.597c-1.027-5.278-2.956-9.051-5.172-12.361c-1.811-1.655-3.971-2.36-6.122-3.081l-1.212-2.026
	c-4.049-9.821-9.642-17.401-16.135-23.661c4.68-0.161,7.581-2.075,8.789-5.665c3.759,1.301,5.922-0.162,6.774-3.899
	c0.389-2.897,0.191-6.181-0.583-9.861l1.656-5.953l1.077-2.445l0.084-3.413l-0.552-2.536c-1.045-0.865-0.48-2.312,0.02-4.474
	c0.191-0.816,1.328-2.049,1.79-2.868C73.729,5.627,75.539,2.175,78.569,0c-0.804,5.19-0.334,9.787,1.653,13.666
	c4.601,0.948,8.342,7.272,14.2,8.107c2.22,1.428,4.601,3.033,8.264,5.971c6.037,5.856,7.693-2.535,10.265-7.953l1.131,10.11
	l-0.989,1.767l2.264,2.047l4.298,31.717c2.837,6.227,5.678,10.123,8.543,2.719c2.698-11.002,9.047-18.269,11.505-25.765
	c1.767-1.191,2.805-3.91,3.706-6.942c4.709,2.214,10.038,2.394,16.437-0.928c7.558-3.563,14.285-7.788,19.093-13.527l0.562,3.952
	c4.685-6.587,16.068-15.951,23.241-7.3c-19.205,0.515-16.057,18.263-9.331,30.126c-3.169-0.412-6.205,3.17-9.264,5.924l4.218,2.064
	c-3.712,2.726-3.814,5.655-2.828,8.636l11.069-3.188l-6.069,13.806c-12.699,7.566-18.12,24.382-22.372,42.674
	c7.038,2.985,14.006,3.852,20.779-0.659l5.587,3.25c7.148,0.787,13.394,3.289,19.381,6.279
	c-10.758,2.338-11.654,14.006-20.512,25.571l-3.074,2.419l-3.951,0.568c-14.107,2.711-28.152,2.612-42.145,0.631
	c0.481,1.192,0.996,2.38,1.59,3.05c5.318,5.976,11.709,15.539,17.619,23.768c3.441,6.554,7.339,12.901,12.113,18.831l6.675,5.573
	l-7.296,8.779C169.958,214.234,169.656,195.928,149.185,175.581L149.185,175.581z"/>
</svg>
