<?xml version="1.0" encoding="utf-8"?>
<!-- Generator: Adobe Illustrator 17.0.0, SVG Export Plug-In . SVG Version: 6.00 Build 0)  -->
<!DOCTYPE svg PUBLIC "-//W3C//DTD SVG 1.1//EN" "http://www.w3.org/Graphics/SVG/1.1/DTD/svg11.dtd">
<svg version="1.1" id="圖層_1" xmlns="http://www.w3.org/2000/svg" xmlns:xlink="http://www.w3.org/1999/xlink" x="0px" y="0px"
	 width="246.518px" height="259.493px" viewBox="0 0 246.518 259.493" style="enable-background:new 0 0 246.518 259.493;"
	 xml:space="preserve">
<style type="text/css">
	.st0{fill:#6B7D7E;}
</style>
<g>
	<path class="st0" d="M81.483,244.02c-1.171-2.929,6.677-11.285,4.206-12.657c0.792-1.517,1.8-2.782,3.026-3.796
		c-3.548-1.718,1.383-3.643,2.338-3.893c-0.658-0.395-1.322-0.789-1.984-1.183c-0.429-1.566,3.024-2.45,3.817-2.512
		c-2.768-3.327,1.601-3.219,2.847-3.444c-3.007-3.338,1.385-1.957,2.723-2.932c-1.029-1.071-2.27-3.485-3.502-2.655
		c-0.946,0.641-3.998,4.148-5.365,1.878c0.004-0.785,0.126-1.513,0.371-2.186c-1.858,1.122-4.877,4.269-5.764-0.797
		c-0.403,0.425-5.335,4.6-6.231,2.136c0.139-0.971,0.332-1.915,0.58-2.832c-3.763,1.777-6.278,4.146-6.589-1.329
		c-0.918,0.677-5.633,2.557-6.737,0.472c0.36-0.948,0.723-1.898,1.09-2.854c-1.628-1.669-5.87,3.274-7.583-0.076
		c0.296-0.77,0.594-1.544,0.896-2.32c-1.975,0.071-12.428-3.291-13.067-5.399c1.496-1.24,0.531-1.88-2.901-1.928
		c-3.579-1.12-7.191-2.406-10.791-4.234c2.763-2.726,8.77-1.827,13.04-1.772c-1.891-1.739,8.273-4.078,11.076-3.358
		c-0.58-0.898-1.162-1.794-1.748-2.688c0.632-1.927,6.881,1.021,8.248,1.789c-0.42-0.614-2.238-2.434-2.001-3.165
		c0.628-1.905,6.317,1.12,7.486,2.024c-0.434-0.848-0.871-1.695-1.309-2.539c-0.499-1.022,7.131,1.898,8.061,2.613
		c0.213-0.664-1.602-3.206-1.099-3.389c2.514-0.934,4.856,3.318,7.143,3.755c-0.137-0.897-0.273-1.792-0.41-2.688
		c0.759-0.947,6.06,3.083,6.112,2.163c0.258-3.958-7.861-1.334-7.448-7.504c-1.07-0.124-11.387-2.461-10.664-5.114
		c0.75-0.602,1.535-1.16,2.357-1.675c-2.799-0.866-5.656-1.689-8.343-3.267c-3.393-1.982,0.574-2.159,0.703-4.054
		c-1.85-0.141-11.391-1.4-11.533-5.033c-0.041-1.224,3.217-0.981,3.764-1.99c-1.244-0.297-12.867-3.995-12.295-6.059
		c0.276-0.962,2.821-1.387,3.473-2.2c-2.949-0.291-6.97-2.39-9.537-4.2c-4.572-3.208,1.096-3.274,3.148-3.894
		c-3.19-0.955-17.564-7.196-8.515-8.808c-2.086-1.125-11.161-6.06-10.704-8.615c0.777-0.246,1.557-0.496,2.338-0.745
		c-1.695-1.105-9.001-5.812-7.77-7.941c0.771-0.063,1.546-0.126,2.319-0.189C12.035,107.539,5.053,101.944,0,95.422
		c7.912-1.294,18.477,5.965,24.957,9.565c-1.486-5.034,8.624,1.221,10.092,2.21c-0.187-5.632,10.599,3.239,11.922,4.876
		c-0.164-9.832,8.567,1.138,10.902,5.594c0.219-1.237-0.88-6.604,1.893-5.422c3.24,1.376,6.511,6.462,7.638,9.581
		c1.131-1.505,0.142-7.094,3.661-3.411c2.663,2.801,4.729,6.913,5.995,10.522c1.07-0.59,0.571-4.883,1.642-4.686
		c4.362,0.802,4.596,8.52,6.329,11.487c0.738-0.458,1.273-4.301,2.853-2.928c2.767,2.422,3.78,6.435,4.99,9.8
		c0.536-0.409,0.875-3.456,1.753-3.163c3.83,1.288,2.564,9.961,5.414,11.418c-0.337-0.169,5.757-0.439,4.681,0.873
		c1.815-2.203-6.349-9.643-4.85-12.091c0.893-1.436,4.612,1.48,2.24-3.016c-1.302-2.508-6.073-8.39-4.996-11.574
		c0.344-0.999,3.548,0.814,4.291,0.603c-1.945-3.328-3.962-6.686-5.007-10.451c-1.081-3.878,2.923-1.899,4.821-2.151
		c-2.669-2.803-5.288-6.535-6.656-10.195c-2.783-7.418,3.986-1.792,6.192-2.356c-1.485-4.677-4.554-8.593-5.598-13.419
		c-1.224-5.712,3.715-0.104,5.968-1.111c-2.34-3.226-4.24-8.243-4.452-12.267c-0.294-5.752,5.186-1.141,7.395-0.052
		c0.684-3.991-8.829-21.316,2.437-14.73c-0.415-2.371-2.263-19.587,3.958-15.14c-0.27-2.458-0.727-12.586,3.127-13.708
		c0.767,0.575,1.538,1.153,2.302,1.732c0.308-4.129,2.046-30.534,7.695-31.773c5.566-1.215,6.341,25.653,7.54,29.426
		c0.747-0.812,1.498-1.627,2.249-2.443c3.763-0.166,3.344,10.64,3.058,13.148c6.02-6.002,4.492,12.058,3.718,14.708
		c11.317-9.441,5.297,8.615,2.36,14.705c2.271-1.217,7.824-7.965,7.503-1.61c-0.223,4.316-2.161,10.199-4.599,13.988
		c1.099-0.089,5.258-3.081,5.997-2.406c2.595,2.46-4.697,14.963-5.706,17.657c2.073,0.147,9.431-6.785,6.271,1.582
		c-1.576,4.177-5.547,7.69-6.714,11.745c0.972,0.195,5.262-2.496,4.962,0.371c-0.5,4.734-3.216,9.033-5.351,13.054
		c2.643,0.501,5.414-3.941,3.926,2.196c-0.74,2.99-6.362,9.051-5.719,11.765c0.456,2.002,4.528-1.111,2.426,3.57
		c-0.512,1.114-5.02,9.445-4.073,10.289c4.721,4.556,10.315-21.694,11.87-9.91c0.871-2.641,2.625-9.867,5.328-11.258
		c0.871-0.45,1.952,2.905,2.63,3.252c0.154-1.226,3.923-15.171,6.338-13.065c1.026,0.915,0.679,3.645,1.545,4.873
		c2.581-0.562,3.977-13.809,7.913-13.536c0.854,0.06,1.638,4.1,1.913,4.644c1.641-3.703,3.543-7.784,6.203-10.873
		c4.362-5.058,2.893,2.644,3.372,4.963c1.361-3.52,3.939-7.23,6.265-10.164c4.802-6.057,3.522-1.637,4.668,1.962
		c1.445-1.8,9.872-12.058,11.854-10.563c0.026,0.976,0.052,1.953,0.077,2.931c2.783,0.55,7.664-9.89,10.593-7.011
		c-0.15,0.87-0.302,1.739-0.452,2.608c2.072,2.124,20.49-16.074,24.963-16.858c-1.767,9.635-13.21,19.459-18.757,26.531
		c0.744,0.001,1.488,0.001,2.232,0c1.14,2.772-6.134,9.672-7.833,11.33c0.783,0.24,1.564,0.481,2.344,0.722
		c0.406,3.327-8.71,10.488-10.731,12.171c8.881,1.737-5.293,10.507-8.508,11.679c1.099,1.739,8.016,0.312,2.96,4.951
		c-2.597,2.384-6.63,5.054-9.589,5.447c0.741,1.055,3.471,0.832,3.581,2.577c0.185,3.376-10.907,7.153-12.462,7.644
		c0.552,1.195,3.774,1.048,3.718,2.579c-0.185,4.552-9.74,5.731-11.594,5.582c0.235,0.878,3.327,2.406,2.016,3.93
		c-2.66,3.099-6.489,3.47-9.599,4.39c0.926,2.259,4.662,3.671-0.534,5.439c-1.682,0.572-6.569,0.059-7.813,1.81
		c-0.877,1.238,2.454,2.7-0.507,3.962c-0.595,0.263-7.394,3.489-6.961,3.969c1.515,1.799,4.578-4.437,6.116-1.961
		c-0.158,1.015-0.315,2.029-0.472,3.042c2.47-0.577,4.218-4.286,7.003-3.657c0.711,0.163-1.002,3.365-0.953,3.962
		c1.104-0.474,7.189-4.582,8.003-2.986c0.186,0.374-1.192,3.162-1.205,3.784c1.495-0.286,5.357-2.813,6.633-1.517
		c0.274,1.462-0.161,2.79-1.289,3.971c2.068-1.188,11.717-4.558,6.575,1.963c2.737-0.515,13.033,4.262,11.066,6.305
		c4.285,1.063,10.16,0.809,13.019,5.256c-4.81,2.239-9.603,3.15-14.349,3.928c0.235,0.394,0.432,0.825,0.592,1.295
		c-0.59,2.339-5.075,1.787-6.166,1.75c0.152,0.604,0.303,1.209,0.452,1.814c-0.885,2.156-6.186,0.663-7.375,0.359
		c0.29,1.057,0.577,2.116,0.863,3.176c-1.688,3.805-5.907-3.441-7.57-1.816c0.36,1.283,0.714,2.569,1.066,3.857
		c-1.161,2.223-5.877-1.268-6.772-2.391c0.206,1.246,0.409,2.492,0.61,3.74c-1.263,2.259-6.127-2.644-7.091-3.661
		c-0.313,0.73,1.345,3.476,0.377,3.769c-2.971,0.895-3.598-3.721-6.127-4.201c-0.055,1.013-0.109,2.026-0.166,3.038
		c-1.838,1.924-3.886-3.591-5.58-3.508c1.654,7.334-4.69-1.406-5.911-1.464c-0.384,1.619-1.197,2.541-2.438,2.769
		c1.621,0.06,3.018,0.842,4.174,2.362c-0.509,0.493-1.016,0.986-1.522,1.477c1.476,0.644,6.971,3.043,2.828,4.6
		c0.822,0.278,4.221,2.207,3.786,3.933c-0.665,0.26-1.329,0.518-1.991,0.775c0.941,0.534,5.807,4.363,2.279,5.185
		c2.158,2.591,2.599,5,3.469,8.427c0.853,3.322,3.332,9.31,3.636,13.627c-2.202-0.325-10.07-10.775-10.646-7.854
		c-1.317-1.303-2.473-2.875-3.467-4.707c-0.763,5.074-2.703-2.663-3.5-3.607c-0.54,6.051-2.795-0.617-3.112-2.879
		c-0.341,0.667-0.68,1.333-1.019,1.998c-1.049-1.861-1.772-3.936-2.155-6.229c-0.232,0.761-0.465,1.522-0.695,2.281
		c-1.514,0.502-1.906-4.93-1.979-6.064c-0.329,0.488-0.656,0.975-0.982,1.461c-1.344-0.029-1.198-4.235-1.837-5.228
		c-0.401,1.725-7.673-13.414-7.977-13.608c-2.738-2.757,1.396-9.166-1.593-11.478c-3.367,3.13-0.044,41.1-4.334,45.231
		s-0.245-41.142-1.713-45.008c-0.628,2.091-3.036,15.015-4.56,15.087c-0.616-1.003-4.169,12.132-6.24,9.495
		c-0.115,1.023-0.543,6.006-2.032,5.093c-0.23-0.767-0.461-1.533-0.694-2.298c-0.229,1.024-1.196,5.889-2.486,5.216
		c-0.297-0.709-0.538-1.439-0.721-2.19c-0.177,0.99-1.435,4.968-2.601,4.21c-0.173-0.846-0.347-1.691-0.522-2.535
		c-1.225,0.08-1.249,5.51-3.063,4.197c-0.154-0.704-0.309-1.407-0.464-2.11c-1.18,1.644-4.382,3.405-6.215,3.457
		C87.666,241.495,84.212,244.699,81.483,244.02C81.274,243.443,81.545,244.035,81.483,244.02z"/>
</g>
</svg>
