<?xml version="1.0" encoding="utf-8"?>
<!-- Generator: Adobe Illustrator 17.0.0, SVG Export Plug-In . SVG Version: 6.00 Build 0)  -->
<!DOCTYPE svg PUBLIC "-//W3C//DTD SVG 1.1//EN" "http://www.w3.org/Graphics/SVG/1.1/DTD/svg11.dtd">
<svg version="1.1" id="圖層_1" xmlns="http://www.w3.org/2000/svg" xmlns:xlink="http://www.w3.org/1999/xlink" x="0px" y="0px"
	 width="249.008px" height="251.74px" viewBox="0 0 249.008 251.74" style="enable-background:new 0 0 249.008 251.74;"
	 xml:space="preserve">
<style type="text/css">
	.st0{fill:#6B7D7E;}
</style>
<path class="st0" d="M249.008,108.531c-2.597,2.619-9.734,3.389-13.069,5.244c-5.973,3.323-3.837,5.355-9.339,8.368
	c-3.54,1.938-4.619,8.89-8.621,11.222c-5.735,3.344-0.824,5.523-9.277,8.454c-2.976,1.032,3.208,2.839-1.387,4.613
	c-11.684,4.51-3.21-0.262-4.27,3.752c0.24-0.91-10.192,6.499-9.486,6.233c-6.144,2.321-8.393,5.96-15.147,6.204
	c-3.243,0.117-26.707,6.725-29.865,9.632c9.222-1.313,19.796-2.173,25.477,2.606c-2.139-1.8,9.95,1.804,8.231,1.843
	c7.665-0.175,4.684,2.153,11.056,2.498c0.597,0.032,8.274,6.371,8.678,4.561c-0.437,1.962,16.029,6.838,17.929,7.712
	c-5.652,4.215-19.28-3.353-24.181,1.712c-3.195,3.301-13.616-1.224-16.853,0.184c-2.596,1.129-7.208,1.187-10.214,1.107
	c-6.929-0.184-17.518-9.559-23.003-8.777c0.033,1.653,8.88,12.822,6.262,13.461c1.643-0.401,5.935,22.731,5.507,23.867
	c-1.344-0.9-16.861-19.561-16.737-19.662c-3.882,3.165-1.741-11.752-4.262-11.368c-8.777,1.336,3.442,62.822-13.079,59.621
	c-4.205-0.815,3.994-18.923,3.844-21.538c-1.273-22.125-0.391-23.61-1.205-40.941c0.165,3.505-2.833,12.962-6.452,13.99
	c-8.591,2.442-10.216,22.803-17.028,26.154c-10.142-14.316,11.137-29.602,7.934-40.39c-6.178,0.449-16.521,6.387-22.489,8.681
	c-2.255,0.867-14.827,1.805-15.11-0.204c0.092,0.651-14.584-0.634-16.267-1.473c-8.066-4.021-18.076-0.309-26.465-3.375
	c0.603-1.465,24.71-9.327,24.57-9.859c-0.31-1.18,19.443-6.487,22.308-5.332c0.412,0.166,16.086-4.002,16.596-2.455
	c0.328,0.993,20.805-0.511,24.382-0.322c-12.844-5.085-27.271-7.485-39.768-11.073c-5.835-1.675-17.975-5.618-20.281-10.014
	c-2.347-0.619-4.731-1.054-7.154-1.305c-3.003-1.037,0.412-1.715-0.311-3.197c-2.489-0.905-4.999-1.751-7.528-2.539
	c-2.388-1.301,0.733-1.577,0.136-3.086c1.435,3.632-10.167-7.681-6.508-6.479c-1.236-0.406-8.847-4.931-7.716-7.168
	C30.488,126.447,2.344,108.529,0,106.408c3.075,0.372,36.226,9.3,35.992,9.796c1.261-2.668,22.073,6.287,24.941,5.976
	c2.434-0.263,12.374,6.931,13.707,9.704c3.3-4.658,8.109,3.876,8.345,3.242c2.096-5.627-16.698-16.73-12.151-20.396
	c-7.026-3.674-4.954-4.542-4.637-8.247c0.163-1.901-12.968-15.345-9.418-16.706c1.347-0.517-8.975-15.833-3.729-17.331
	c-4.795-6.339-3.071-11.832-5.149-18.577c-1.777-5.766-4.845-17.459-4.137-22.83c1.452-0.174,13.703,26.695,16.593,24.563
	c2.831-2.089,4.42,4.127,4.63,5.638c0.143,1.026,3.548-0.733,3.001-0.842c1.913,0.384,3.678,6.762,3.86,8.21
	c0.153,1.216,2.724-0.938,3.053-0.852c-2.341-0.609,7.361,9.045,6.968,8.166c2.584,5.776,7.679,6.257,7.44,13.027
	c0.168-4.776,9.883,6.014,7.071,7.56c6.139-3.376,1.754,7.058,4.207,8.389c1.001-0.411,1.992-0.847,2.972-1.307
	c2.303,1.014-0.276,8.625,1.462,9.5c3.984,2.006,4.014-1.571,4.035,8.628c0.886-0.428,1.805-0.765,2.757-1.011
	c2.388,1.152-0.752,9.038,1.289,10.045c-0.202-0.1,4.968-0.546,5.102-0.708c1.951-2.352-10.197-8.572-2.785-10.532
	c-5.621-7.584-3.386-11.684-6.564-20.263c-0.271-0.731,1.86-2.864,0.713-6.316c-2.292-6.897-0.016-2.185,1.908-4.568
	c0.486-0.602-2.203-7.058-2.377-7.963c-0.485-2.525,1.887-0.092,2.742-1.361c-1.536,2.278-0.38-13.764,1.078-9.426
	c-3.1-9.225,1.93-4.767,1.068-12.104c-0.242-2.056,5.265-12.392,3.028-13.338c3.762,1.59,1.738-2.933,1.87-5.356
	c0.247-4.508,1.657-0.405,3.446-1.871c1.242-1.018,3.558-13.233,3.946-15.392c0.788-4.383,8.483-14.401,8.989-21.554
	c5.094,9.801-3.955,27.495,3.888,32.875c-2.929-2.009,2.381,11.671,2.454,10.278c-0.442,8.438-0.662,4.592,2.695,7.753
	c1.637,1.541-1.047,5.824-1.901,7.834c5.735,1.312,3.852,3.549,1.072,9.914c1.309-0.286,2.622-0.334,3.937-0.145
	c1.73,1.73-3.528,6.259-2.613,7.638c1.279,1.925,4.264-2.265,2.893,2.549c-1.384,4.86-4.118,5.559,0.896,5.549
	c-0.282,0.888-3.808,8.205-3.447,8.766c1.015,0.277,2.049,0.374,3.102,0.29c-0.455-0.405-2.984,15.35-3.184,15.801
	c-0.207,0.467-3.678,14.562-3.968,14.003c0.203,0.391,3.069,4.87,3.375,4.996c0.166-3.657-1.403-11.64,4.007-8.566
	c0.032-8.679,0.489-6.9,4.185-8.81c1.916-0.99-0.846-8.746,1.95-9.881c0.821,0.31,1.629,0.652,2.422,1.028
	c1.21-0.658-0.261-9.124,2.667-7.326c3.149,1.933,3.223-5.6,3.952-7.309c1.326-3.109,3.175,2.762,3.62-1.477
	c1.03-9.79,1.559-2.792,4.753-4.622c2.001-1.146-0.301-11.52,5.088-7.75c-6.372-4.456,6.527-5.897,6.244-5.79
	c-0.843,0.32,10.864-13.469,10.262-11.767c1.348-3.804,18.639-17.869,18.352-18.429c0.488,0.955-9.779,15.762-7.256,16.369
	c1.61,0.387-3.783,13.106-3.596,13.492c0.732,0.334,1.487,0.604,2.265,0.811c-0.881,2.264-2.215,4.271-4.001,6.022
	c-1.059,1.097,1.901,1.276,1.981,1.505c1.122,3.217-3.315,5.429-2.019,8.685c-0.831,2.358-2.194,4.411-4.088,6.16
	c-0.964,0.751,2.469,1.393,2.606,1.767c1.055,2.871-6.088,5.139-5.651,7.485c0.211,1.131,2.753,0.614,2.999,1.732
	c-0.255-1.16-6.805,11.056-7.254,11.463c-4.081,3.694,0.134,3.617-1.51,5.155c-0.802,0.75-7.49,4.542-7.474,5.612
	c0.055,3.606-0.385,3.989-6.078,7.104c0.043,0.159,2.161,2.673,2.224,2.685c1.791,0.344,3.766-7.082,6.254-6.715
	c0.758,0.774,1.332,1.667,1.723,2.681c2.838-5.789,4.377-5.205,7.627-5.294c7.887-0.216,1.63-7.086,7.39-2.366
	c2.172-3.382,14.755-8.664,16.024-5.251C217.009,112.753,249.003,105.679,249.008,108.531
	C248.511,109.033,249.008,108.46,249.008,108.531z"/>
</svg>
